<svg xmlns="http://www.w3.org/2000/svg" xmlns:xlink="http://www.w3.org/1999/xlink" width="500" zoomAndPan="magnify" viewBox="0 0 375 374.999991" height="500" preserveAspectRatio="xMidYMid meet" version="1.0"><defs><clipPath id="id1"><path d="M 75 46.796875 L 300 46.796875 L 300 328 L 75 328 Z M 75 46.796875 " clip-rule="nonzero"/></clipPath></defs><path fill="rgb(50.979614%, 6.669617%, 33.729553%)" d="M 375 187.5 C 375 190.570312 374.925781 193.636719 374.773438 196.699219 C 374.625 199.765625 374.398438 202.824219 374.097656 205.878906 C 373.796875 208.933594 373.421875 211.976562 372.96875 215.011719 C 372.519531 218.046875 371.996094 221.070312 371.398438 224.078125 C 370.796875 227.089844 370.125 230.082031 369.378906 233.058594 C 368.636719 236.035156 367.816406 238.992188 366.925781 241.929688 C 366.035156 244.863281 365.074219 247.777344 364.039062 250.667969 C 363.003906 253.554688 361.902344 256.417969 360.726562 259.253906 C 359.554688 262.089844 358.308594 264.890625 356.996094 267.667969 C 355.6875 270.441406 354.304688 273.179688 352.859375 275.886719 C 351.414062 278.59375 349.902344 281.261719 348.324219 283.894531 C 346.746094 286.527344 345.105469 289.117188 343.402344 291.667969 C 341.695312 294.222656 339.929688 296.730469 338.101562 299.195312 C 336.273438 301.660156 334.386719 304.078125 332.4375 306.449219 C 330.492188 308.820312 328.488281 311.144531 326.429688 313.417969 C 324.367188 315.691406 322.253906 317.914062 320.082031 320.082031 C 317.914062 322.253906 315.691406 324.367188 313.417969 326.429688 C 311.144531 328.488281 308.820312 330.492188 306.449219 332.4375 C 304.078125 334.386719 301.660156 336.273438 299.195312 338.101562 C 296.730469 339.929688 294.222656 341.695312 291.667969 343.402344 C 289.117188 345.105469 286.527344 346.746094 283.894531 348.324219 C 281.261719 349.902344 278.59375 351.414062 275.886719 352.859375 C 273.179688 354.308594 270.441406 355.6875 267.667969 356.996094 C 264.890625 358.308594 262.089844 359.554688 259.253906 360.726562 C 256.417969 361.902344 253.554688 363.003906 250.667969 364.039062 C 247.777344 365.074219 244.863281 366.035156 241.929688 366.925781 C 238.992188 367.816406 236.035156 368.636719 233.058594 369.378906 C 230.082031 370.125 227.089844 370.796875 224.078125 371.398438 C 221.070312 371.996094 218.046875 372.519531 215.011719 372.96875 C 211.976562 373.421875 208.933594 373.796875 205.878906 374.097656 C 202.824219 374.398438 199.765625 374.625 196.699219 374.773438 C 193.636719 374.925781 190.570312 375 187.5 375 C 184.429688 375 181.363281 374.925781 178.300781 374.773438 C 175.234375 374.625 172.175781 374.398438 169.121094 374.097656 C 166.066406 373.796875 163.023438 373.421875 159.988281 372.96875 C 156.953125 372.519531 153.929688 371.996094 150.921875 371.398438 C 147.910156 370.796875 144.917969 370.125 141.941406 369.378906 C 138.964844 368.636719 136.007812 367.816406 133.070312 366.925781 C 130.136719 366.035156 127.222656 365.074219 124.332031 364.039062 C 121.445312 363.003906 118.582031 361.902344 115.746094 360.726562 C 112.910156 359.554688 110.105469 358.308594 107.332031 356.996094 C 104.558594 355.6875 101.820312 354.308594 99.113281 352.859375 C 96.40625 351.414062 93.738281 349.902344 91.105469 348.324219 C 88.472656 346.746094 85.882812 345.105469 83.332031 343.402344 C 80.777344 341.695312 78.269531 339.929688 75.804688 338.101562 C 73.339844 336.273438 70.921875 334.386719 68.550781 332.4375 C 66.179688 330.492188 63.855469 328.488281 61.582031 326.429688 C 59.308594 324.367188 57.085938 322.253906 54.917969 320.082031 C 52.746094 317.914062 50.632812 315.691406 48.570312 313.417969 C 46.511719 311.144531 44.507812 308.820312 42.558594 306.449219 C 40.613281 304.078125 38.726562 301.660156 36.898438 299.195312 C 35.070312 296.730469 33.304688 294.222656 31.597656 291.667969 C 29.894531 289.117188 28.253906 286.527344 26.675781 283.894531 C 25.097656 281.261719 23.585938 278.59375 22.140625 275.886719 C 20.691406 273.179688 19.3125 270.441406 18.003906 267.667969 C 16.691406 264.890625 15.445312 262.089844 14.273438 259.253906 C 13.097656 256.417969 11.996094 253.554688 10.960938 250.667969 C 9.925781 247.777344 8.964844 244.863281 8.074219 241.929688 C 7.183594 238.992188 6.363281 236.035156 5.617188 233.058594 C 4.875 230.082031 4.203125 227.089844 3.601562 224.078125 C 3.003906 221.070312 2.480469 218.046875 2.03125 215.011719 C 1.578125 211.976562 1.203125 208.933594 0.902344 205.878906 C 0.601562 202.824219 0.375 199.765625 0.226562 196.699219 C 0.0742188 193.636719 0 190.570312 0 187.5 C 0 184.429688 0.0742188 181.363281 0.226562 178.300781 C 0.375 175.234375 0.601562 172.175781 0.902344 169.121094 C 1.203125 166.066406 1.578125 163.023438 2.03125 159.988281 C 2.480469 156.953125 3.003906 153.929688 3.601562 150.921875 C 4.203125 147.910156 4.875 144.917969 5.617188 141.941406 C 6.363281 138.964844 7.183594 136.007812 8.074219 133.070312 C 8.964844 130.136719 9.925781 127.222656 10.960938 124.332031 C 11.996094 121.445312 13.097656 118.582031 14.273438 115.746094 C 15.445312 112.910156 16.691406 110.105469 18.003906 107.332031 C 19.3125 104.558594 20.691406 101.820312 22.140625 99.113281 C 23.585938 96.40625 25.097656 93.738281 26.675781 91.105469 C 28.253906 88.472656 29.894531 85.882812 31.597656 83.332031 C 33.304688 80.777344 35.070312 78.269531 36.898438 75.804688 C 38.726562 73.339844 40.613281 70.921875 42.558594 68.550781 C 44.507812 66.179688 46.511719 63.855469 48.570312 61.582031 C 50.632812 59.308594 52.746094 57.085938 54.917969 54.917969 C 57.085938 52.746094 59.308594 50.632812 61.582031 48.570312 C 63.855469 46.511719 66.179688 44.507812 68.550781 42.558594 C 70.921875 40.613281 73.339844 38.726562 75.804688 36.898438 C 78.269531 35.070312 80.777344 33.304688 83.332031 31.597656 C 85.882812 29.894531 88.472656 28.253906 91.105469 26.675781 C 93.738281 25.097656 96.40625 23.585938 99.113281 22.140625 C 101.820312 20.691406 104.558594 19.3125 107.332031 18.003906 C 110.105469 16.691406 112.910156 15.445312 115.746094 14.273438 C 118.582031 13.097656 121.445312 11.996094 124.332031 10.960938 C 127.222656 9.925781 130.136719 8.964844 133.070312 8.074219 C 136.007812 7.183594 138.964844 6.363281 141.941406 5.617188 C 144.917969 4.875 147.910156 4.203125 150.921875 3.601562 C 153.929688 3.003906 156.953125 2.480469 159.988281 2.03125 C 163.023438 1.578125 166.066406 1.203125 169.121094 0.902344 C 172.175781 0.601562 175.234375 0.375 178.300781 0.226562 C 181.363281 0.0742188 184.429688 0 187.5 0 C 190.570312 0 193.636719 0.0742188 196.699219 0.226562 C 199.765625 0.375 202.824219 0.601562 205.878906 0.902344 C 208.933594 1.203125 211.976562 1.578125 215.011719 2.03125 C 218.046875 2.480469 221.070312 3.003906 224.078125 3.601562 C 227.089844 4.203125 230.082031 4.875 233.058594 5.617188 C 236.035156 6.363281 238.992188 7.183594 241.929688 8.074219 C 244.863281 8.964844 247.777344 9.925781 250.667969 10.960938 C 253.554688 11.996094 256.417969 13.097656 259.253906 14.273438 C 262.089844 15.445312 264.890625 16.691406 267.667969 18.003906 C 270.441406 19.3125 273.179688 20.691406 275.886719 22.140625 C 278.59375 23.585938 281.261719 25.097656 283.894531 26.675781 C 286.527344 28.253906 289.117188 29.894531 291.667969 31.597656 C 294.222656 33.304688 296.730469 35.070312 299.195312 36.898438 C 301.660156 38.726562 304.078125 40.613281 306.449219 42.558594 C 308.820312 44.507812 311.144531 46.511719 313.417969 48.570312 C 315.691406 50.632812 317.914062 52.746094 320.082031 54.917969 C 322.253906 57.085938 324.367188 59.308594 326.429688 61.582031 C 328.488281 63.855469 330.492188 66.179688 332.4375 68.550781 C 334.386719 70.921875 336.273438 73.339844 338.101562 75.804688 C 339.929688 78.269531 341.695312 80.777344 343.402344 83.332031 C 345.105469 85.882812 346.746094 88.472656 348.324219 91.105469 C 349.902344 93.738281 351.414062 96.40625 352.859375 99.113281 C 354.304688 101.820312 355.6875 104.558594 356.996094 107.332031 C 358.308594 110.105469 359.554688 112.910156 360.726562 115.746094 C 361.902344 118.582031 363.003906 121.445312 364.039062 124.332031 C 365.074219 127.222656 366.035156 130.136719 366.925781 133.070312 C 367.816406 136.007812 368.636719 138.964844 369.378906 141.941406 C 370.125 144.917969 370.796875 147.910156 371.398438 150.921875 C 371.996094 153.929688 372.519531 156.953125 372.96875 159.988281 C 373.421875 163.023438 373.796875 166.066406 374.097656 169.121094 C 374.398438 172.175781 374.625 175.234375 374.773438 178.300781 C 374.925781 181.363281 375 184.429688 375 187.5 Z M 375 187.5 " fill-opacity="1" fill-rule="nonzero"/><g clip-path="url(#id1)"><path fill="rgb(100%, 100%, 100%)" d="M 299.027344 158.324219 C 299.027344 96.777344 249.113281 46.867188 187.558594 46.867188 C 126.003906 46.757812 76.089844 96.613281 75.980469 158.105469 C 75.976562 161.03125 76.085938 163.953125 76.3125 166.867188 C 76.535156 169.785156 76.875 172.6875 77.328125 175.578125 C 77.785156 178.46875 78.351562 181.335938 79.03125 184.183594 C 79.710938 187.027344 80.5 189.839844 81.402344 192.625 C 82.304688 195.40625 83.3125 198.152344 84.429688 200.855469 C 85.546875 203.558594 86.769531 206.214844 88.097656 208.820312 C 89.425781 211.429688 90.851562 213.980469 92.378906 216.472656 C 93.910156 218.96875 95.53125 221.398438 97.253906 223.765625 C 98.972656 226.132812 100.78125 228.429688 102.683594 230.652344 C 104.582031 232.878906 106.570312 235.023438 108.636719 237.089844 C 110.707031 239.160156 112.855469 241.144531 115.082031 243.042969 C 117.308594 244.941406 119.605469 246.746094 121.972656 248.464844 C 124.339844 250.183594 126.773438 251.804688 129.269531 253.332031 C 131.765625 254.855469 134.320312 256.28125 136.925781 257.605469 C 139.535156 258.933594 142.191406 260.152344 144.898438 261.269531 C 147.601562 262.382812 150.347656 263.390625 153.132812 264.289062 L 153.132812 320.128906 C 153.132812 320.644531 153.179688 321.152344 153.28125 321.660156 C 153.382812 322.164062 153.53125 322.65625 153.730469 323.132812 C 153.925781 323.609375 154.167969 324.0625 154.453125 324.488281 C 154.742188 324.917969 155.066406 325.316406 155.429688 325.679688 C 155.796875 326.042969 156.191406 326.371094 156.621094 326.65625 C 157.050781 326.941406 157.503906 327.183594 157.976562 327.382812 C 158.453125 327.578125 158.945312 327.726562 159.453125 327.828125 C 159.957031 327.929688 160.46875 327.980469 160.984375 327.980469 L 213.917969 327.980469 C 214.433594 327.980469 214.945312 327.929688 215.449219 327.828125 C 215.953125 327.726562 216.445312 327.578125 216.921875 327.382812 C 217.398438 327.183594 217.851562 326.941406 218.28125 326.65625 C 218.707031 326.371094 219.105469 326.042969 219.46875 325.679688 C 219.835938 325.316406 220.160156 324.917969 220.445312 324.488281 C 220.734375 324.0625 220.972656 323.609375 221.171875 323.132812 C 221.367188 322.65625 221.519531 322.164062 221.617188 321.660156 C 221.71875 321.152344 221.769531 320.644531 221.769531 320.128906 L 221.769531 264.34375 C 224.550781 263.445312 227.292969 262.441406 229.996094 261.324219 C 232.699219 260.210938 235.351562 258.992188 237.960938 257.667969 C 240.566406 256.347656 243.117188 254.921875 245.613281 253.398438 C 248.105469 251.875 250.539062 250.257812 252.90625 248.542969 C 255.273438 246.828125 257.570312 245.023438 259.796875 243.128906 C 262.019531 241.230469 264.167969 239.253906 266.238281 237.1875 C 268.308594 235.125 270.296875 232.984375 272.195312 230.761719 C 274.097656 228.542969 275.910156 226.25 277.632812 223.890625 C 279.351562 221.527344 280.980469 219.101562 282.511719 216.609375 C 284.039062 214.121094 285.472656 211.574219 286.800781 208.972656 C 288.132812 206.367188 289.359375 203.71875 290.480469 201.019531 C 291.601562 198.320312 292.617188 195.582031 293.523438 192.800781 C 294.433594 190.023438 295.226562 187.214844 295.914062 184.371094 C 296.601562 181.53125 297.171875 178.667969 297.632812 175.78125 C 298.09375 172.894531 298.441406 169.992188 298.675781 167.078125 C 298.90625 164.164062 299.027344 161.246094 299.027344 158.324219 Z M 149.890625 158.324219 C 149.890625 108.472656 225.285156 108.472656 225.285156 158.324219 C 225.230469 207.683594 149.890625 208.289062 149.890625 158.324219 Z M 149.890625 158.324219 " fill-opacity="1" fill-rule="nonzero"/></g></svg>